<svg width="131" height="26" viewBox="0 0 131 26" fill="none" xmlns="http://www.w3.org/2000/svg">
<path fill-rule="evenodd" clip-rule="evenodd" d="M9.99907 19.5894C6.16651 17.4065 4.02897 15.2369 2.99533 13.3545C1.9374 11.4279 2.02971 9.80512 2.61675 8.65342C3.8234 6.28614 7.25473 5.52916 9.34537 8.17331L9.99902 9.00002L10.6527 8.17335C12.7437 5.52909 16.1752 6.2862 17.3819 8.65342C17.9689 9.80511 18.0612 11.4278 17.0032 13.3545C15.9694 15.2369 13.8318 17.4065 9.99907 19.5894ZM9.9991 6.42157C7.05809 3.6269 2.71943 4.78193 1.13186 7.89654C0.260575 9.60588 0.248673 11.8152 1.53441 14.1567C2.80875 16.4775 5.3495 18.9271 9.59594 21.2742L9.99905 21.497L10.4022 21.2742C14.6488 18.9271 17.1896 16.4775 18.4641 14.1567C19.7499 11.8152 19.738 9.6059 18.8667 7.89654C17.2791 4.78187 12.9404 3.62694 9.9991 6.42157Z" fill="#424551"/>
<path d="M32.808 7.408C33.2933 7.408 33.7467 7.48 34.168 7.624C34.5893 7.768 34.952 7.97867 35.256 8.256C35.5653 8.528 35.808 8.86133 35.984 9.256C36.16 9.65067 36.248 10.0987 36.248 10.6C36.248 11.0267 36.184 11.4213 36.056 11.784C35.928 12.1467 35.7547 12.496 35.536 12.832C35.3173 13.1627 35.064 13.4853 34.776 13.8C34.4933 14.1093 34.192 14.4267 33.872 14.752L30.856 17.84C31.0693 17.7813 31.2853 17.736 31.504 17.704C31.7227 17.6667 31.9333 17.648 32.136 17.648H35.976C36.1307 17.648 36.2533 17.6933 36.344 17.784C36.4347 17.8747 36.48 17.992 36.48 18.136V19H28.832V18.512C28.832 18.4107 28.8507 18.3067 28.888 18.2C28.9307 18.0933 28.9973 17.9947 29.088 17.904L32.76 14.216C33.064 13.9067 33.3413 13.6107 33.592 13.328C33.8427 13.04 34.056 12.752 34.232 12.464C34.4133 12.176 34.552 11.8853 34.648 11.592C34.744 11.2933 34.792 10.976 34.792 10.64C34.792 10.304 34.7387 10.0107 34.632 9.76C34.5253 9.504 34.3787 9.29333 34.192 9.128C34.0053 8.96267 33.7867 8.84 33.536 8.76C33.2853 8.67467 33.016 8.632 32.728 8.632C32.44 8.632 32.1733 8.67467 31.928 8.76C31.6827 8.84533 31.464 8.96533 31.272 9.12C31.0853 9.26933 30.9253 9.448 30.792 9.656C30.664 9.864 30.5733 10.0933 30.52 10.344C30.4773 10.4987 30.4133 10.6107 30.328 10.68C30.2427 10.7493 30.1307 10.784 29.992 10.784C29.9653 10.784 29.936 10.784 29.904 10.784C29.8773 10.7787 29.8453 10.7733 29.808 10.768L29.064 10.64C29.1387 10.1173 29.2827 9.656 29.496 9.256C29.7093 8.85067 29.9787 8.512 30.304 8.24C30.6347 7.968 31.0107 7.76267 31.432 7.624C31.8587 7.48 32.3173 7.408 32.808 7.408Z" fill="#424551"/>
<line x1="58.5" y1="2" x2="58.5" y2="24" stroke="url(#paint0_linear_45814_4495)"/>
<path fill-rule="evenodd" clip-rule="evenodd" d="M80.8798 4.75768C80.7903 4.75093 80.666 4.75033 80.4331 4.75033H78.9167C78.4104 4.75033 78 4.33992 78 3.83366C78 3.3274 78.4104 2.917 78.9167 2.917H80.4331C80.4417 2.917 80.4503 2.917 80.459 2.91699C80.6558 2.91697 80.8506 2.91695 81.0175 2.92953C81.2033 2.94353 81.4192 2.97641 81.6425 3.07602C81.9568 3.21621 82.2253 3.44203 82.4172 3.72764C82.5536 3.93058 82.623 4.13761 82.6687 4.31827C82.7097 4.48061 82.743 4.67256 82.7767 4.86642C82.7782 4.87494 82.7797 4.88345 82.7811 4.89197L82.9996 6.14787L94.9291 6.50099C95.3965 6.51481 95.8005 6.52676 96.1332 6.5634C96.4849 6.60213 96.8336 6.67496 97.168 6.85314C97.6748 7.12313 98.0844 7.545 98.3393 8.05956C98.5075 8.39915 98.5699 8.7498 98.5982 9.10246C98.625 9.4361 98.625 9.84027 98.625 10.3079V10.3755C98.625 10.8151 98.625 11.1963 98.6004 11.5125C98.5743 11.8477 98.5167 12.1808 98.3631 12.5071C98.1293 13.0037 97.7523 13.419 97.2804 13.6996C96.9704 13.8839 96.6445 13.9733 96.3133 14.0316C96.001 14.0865 95.6216 14.1232 95.1841 14.1656L86.2614 15.029C85.8129 15.0725 85.4244 15.1101 85.1002 15.1158C84.7568 15.1218 84.4125 15.0951 84.0668 14.9682C83.5483 14.7777 83.0992 14.4356 82.778 13.9863C82.5638 13.6867 82.4467 13.3618 82.3613 13.029C82.2808 12.715 82.2139 12.3304 82.1367 11.8866L80.9749 5.20609C80.935 4.97655 80.9131 4.85426 80.8911 4.76721C80.8904 4.76412 80.8896 4.76118 80.8889 4.7584C80.886 4.75816 80.883 4.75792 80.8798 4.75768ZM83.3202 7.99149L83.9372 11.5392C84.0218 12.0258 84.0768 12.3382 84.1372 12.5736C84.1948 12.7981 84.2403 12.8794 84.2693 12.92C84.3764 13.0697 84.5261 13.1838 84.6989 13.2473C84.7458 13.2645 84.8362 13.2868 85.068 13.2827C85.311 13.2785 85.6268 13.2486 86.1183 13.201L94.9745 12.3439C95.4543 12.2975 95.762 12.2671 95.9956 12.226C96.2181 12.1868 96.3011 12.1489 96.3435 12.1238C96.5008 12.0302 96.6264 11.8918 96.7044 11.7263C96.7254 11.6817 96.7551 11.5954 96.7726 11.3701C96.791 11.1337 96.7917 10.8245 96.7917 10.3425C96.7917 9.8305 96.791 9.50062 96.7708 9.24915C96.7515 9.00853 96.7187 8.91832 96.6964 8.87332C96.6115 8.7018 96.4749 8.56118 96.306 8.47118C96.2617 8.44757 96.1725 8.41214 95.9325 8.38572C95.6818 8.3581 95.3521 8.34765 94.8403 8.3325L83.3202 7.99149Z" fill="#424551"/>
<path fill-rule="evenodd" clip-rule="evenodd" d="M85.7917 18.042C85.2854 18.042 84.875 18.4524 84.875 18.9587C84.875 19.4649 85.2854 19.8753 85.7917 19.8753C86.2979 19.8753 86.7083 19.4649 86.7083 18.9587C86.7083 18.4524 86.2979 18.042 85.7917 18.042ZM83.0417 18.9587C83.0417 17.4399 84.2729 16.2087 85.7917 16.2087C87.3104 16.2087 88.5417 17.4399 88.5417 18.9587C88.5417 20.4774 87.3104 21.7087 85.7917 21.7087C84.2729 21.7087 83.0417 20.4774 83.0417 18.9587Z" fill="#424551"/>
<path fill-rule="evenodd" clip-rule="evenodd" d="M94.5 18.042C93.9937 18.042 93.5833 18.4524 93.5833 18.9587C93.5833 19.4649 93.9937 19.8753 94.5 19.8753C95.0063 19.8753 95.4167 19.4649 95.4167 18.9587C95.4167 18.4524 95.0063 18.042 94.5 18.042ZM91.75 18.9587C91.75 17.4399 92.9812 16.2087 94.5 16.2087C96.0188 16.2087 97.25 17.4399 97.25 18.9587C97.25 20.4774 96.0188 21.7087 94.5 21.7087C92.9812 21.7087 91.75 20.4774 91.75 18.9587Z" fill="#424551"/>
<rect x="108" y="3" width="23" height="20" rx="4" fill="#03CEA4"/>
<path d="M121.856 14.604H122.756V15.648C122.756 15.74 122.724 15.82 122.66 15.888C122.6 15.956 122.512 15.99 122.396 15.99H121.856V18H120.236V15.99H116.72C116.604 15.99 116.498 15.954 116.402 15.882C116.31 15.81 116.252 15.72 116.228 15.612L116.036 14.694L120.08 9.258H121.856V14.604ZM120.236 12.324C120.236 12.184 120.24 12.034 120.248 11.874C120.26 11.71 120.276 11.542 120.296 11.37L117.986 14.604H120.236V12.324Z" fill="white"/>
<defs>
<linearGradient id="paint0_linear_45814_4495" x1="57" y1="24" x2="57.0484" y2="1.99791" gradientUnits="userSpaceOnUse">
<stop stop-color="#DADBDD" stop-opacity="0"/>
<stop offset="0.123257" stop-color="#DADBDD" stop-opacity="0.5"/>
<stop offset="0.519097" stop-color="#DADBDD"/>
<stop offset="0.878479" stop-color="#DADBDD" stop-opacity="0.5"/>
<stop offset="1" stop-color="#DADBDD" stop-opacity="0"/>
</linearGradient>
</defs>
</svg>
